<svg width="37" height="25" viewBox="0 0 37 25" fill="none" xmlns="http://www.w3.org/2000/svg">
<path d="M37 22.2222V5.55556C37 5.55556 20.165 17.3148 18.5278 17.925C16.9183 17.3426 0 5.55556 0 5.55556V22.2222C0 24.537 0.49025 25 2.775 25H34.225C36.5643 25 37 24.5935 37 22.2222ZM36.9732 2.28796C36.9732 0.601852 36.482 0 34.225 0H2.775C0.45325 0 0 0.722223 0 2.40741L0.02775 2.66667C0.02775 2.66667 16.7416 14.1852 18.5278 14.8148C20.4148 14.0833 37 2.40741 37 2.40741L36.9732 2.28796Z" fill="#AEAEAE"/>
</svg>
