<svg width="28" height="66" viewBox="0 0 28 66" fill="none" xmlns="http://www.w3.org/2000/svg">
<path d="M13.0206 4.46121C12.8713 4.4596 12.7257 4.41376 12.6024 4.32946C12.479 4.24516 12.3832 4.12617 12.3272 3.98747C12.2712 3.84877 12.2573 3.69656 12.2874 3.55C12.3176 3.40344 12.3903 3.26909 12.4964 3.16385C12.6026 3.05861 12.7375 2.98719 12.884 2.95858C13.0306 2.92998 13.1824 2.94546 13.3202 3.00309C13.458 3.06072 13.5757 3.15791 13.6585 3.28244C13.7413 3.40696 13.7855 3.55325 13.7855 3.70288C13.7855 3.80316 13.7657 3.90244 13.7272 3.99498C13.6886 4.08752 13.6321 4.17148 13.561 4.242C13.4899 4.31253 13.4055 4.36822 13.3127 4.40584C13.2199 4.44347 13.1206 4.46229 13.0206 4.46121Z" fill="#A7B7C6"/>
<path d="M14.5261 18.9265H3.89803C3.69731 18.9265 3.50481 18.8466 3.36288 18.7044C3.22095 18.5622 3.14121 18.3693 3.14121 18.1682V2.94456C3.14121 2.74344 3.22095 2.55056 3.36288 2.40834C3.50481 2.26613 3.69731 2.18623 3.89803 2.18623H22.1268C22.3276 2.18623 22.5201 2.26613 22.662 2.40834C22.8039 2.55056 22.8837 2.74344 22.8837 2.94456V5.2277H5.41981C5.21801 5.2277 5.02448 5.30803 4.88178 5.45101C4.73909 5.59398 4.65892 5.7879 4.65892 5.99011C4.65892 6.19231 4.73909 6.38623 4.88178 6.52921C5.02448 6.67219 5.21801 6.75251 5.41981 6.75251H22.8918V10.5523C22.8918 10.7545 22.972 10.9484 23.1147 11.0914C23.2574 11.2344 23.4509 11.3147 23.6527 11.3147C23.8545 11.3147 24.048 11.2344 24.1907 11.0914C24.3334 10.9484 24.4136 10.7545 24.4136 10.5523V2.94456C24.4136 2.64474 24.3546 2.34785 24.2401 2.07084C24.1256 1.79384 23.9578 1.54215 23.7462 1.33014C23.5346 1.11813 23.2834 0.949955 23.007 0.835217C22.7305 0.720478 22.4342 0.661423 22.135 0.661423H3.89803C3.29512 0.66358 2.71764 0.905077 2.29208 1.33302C1.86652 1.76095 1.62757 2.34045 1.62757 2.94456V18.1601C1.62757 18.7656 1.86764 19.3463 2.29496 19.7745C2.72228 20.2027 3.30185 20.4432 3.90617 20.4432H14.5261C14.7279 20.4432 14.9214 20.3629 15.0641 20.2199C15.2068 20.0769 15.287 19.883 15.287 19.6808C15.287 19.4786 15.2068 19.2847 15.0641 19.1417C14.9214 18.9987 14.7279 18.9184 14.5261 18.9184V18.9265Z" fill="#A7B7C6"/>
<path d="M23.6568 14.3521H22.4524L22.6721 14.132C22.8145 13.9892 22.8946 13.7956 22.8946 13.5938C22.8946 13.3919 22.8145 13.1984 22.6721 13.0556C22.5296 12.9129 22.3364 12.8327 22.135 12.8327C21.9335 12.8327 21.7403 12.9129 21.5979 13.0556L20.6132 14.0423L19.6367 13.0638C19.5661 12.9926 19.4823 12.936 19.3899 12.8972C19.2976 12.8585 19.1985 12.8384 19.0984 12.838C18.9982 12.8376 18.899 12.857 18.8064 12.895C18.7137 12.9331 18.6295 12.989 18.5584 13.0597C18.4873 13.1304 18.4309 13.2144 18.3922 13.3069C18.3535 13.3995 18.3334 13.4987 18.333 13.5991C18.3327 13.6994 18.352 13.7988 18.39 13.8916C18.4279 13.9845 18.4838 14.0689 18.5543 14.1401L18.774 14.3603H17.5859C17.3852 14.3603 17.1927 14.4402 17.0508 14.5824C16.9088 14.7246 16.8291 14.9175 16.8291 15.1186V19.6849C16.8291 19.886 16.9088 20.0789 17.0508 20.2211C17.1927 20.3633 17.3852 20.4432 17.5859 20.4432H23.6649C23.8642 20.4411 24.0546 20.3602 24.1948 20.2182C24.335 20.0763 24.4136 19.8846 24.4136 19.6849V15.1186C24.4147 15.0183 24.3959 14.9188 24.3583 14.8259C24.3208 14.7329 24.2652 14.6484 24.1948 14.5771C24.1244 14.5058 24.0406 14.4492 23.9483 14.4106C23.8559 14.372 23.7568 14.3521 23.6568 14.3521ZM18.3427 15.8769H19.8482V18.9184H18.3427V15.8769ZM22.8999 18.9184H21.37V15.8769H22.8999V18.9184Z" fill="#A7B7C6"/>
<path d="M9.2202 8.26103C9.2202 8.05991 9.14046 7.86702 8.99853 7.72481C8.8566 7.5826 8.6641 7.5027 8.46338 7.5027H5.41982C5.21909 7.5027 5.02659 7.5826 4.88466 7.72481C4.74273 7.86702 4.66299 8.05991 4.66299 8.26103V11.3025C4.66299 11.5036 4.74273 11.6965 4.88466 11.8387C5.02659 11.9809 5.21909 12.0608 5.41982 12.0608H8.46338C8.6641 12.0608 8.8566 11.9809 8.99853 11.8387C9.14046 11.6965 9.2202 11.5036 9.2202 11.3025V8.26103ZM7.69842 10.5523H6.18477V9.02751H7.69842V10.5523Z" fill="#A7B7C6"/>
<path d="M8.46338 12.8354H5.41982C5.21909 12.8354 5.02659 12.9153 4.88466 13.0576C4.74273 13.1998 4.66299 13.3927 4.66299 13.5938V16.6352C4.66299 16.8364 4.74273 17.0293 4.88466 17.1715C5.02659 17.3137 5.21909 17.3936 5.41982 17.3936H8.46338C8.6641 17.3936 8.8566 17.3137 8.99853 17.1715C9.14046 17.0293 9.2202 16.8364 9.2202 16.6352V13.5938C9.2202 13.3927 9.14046 13.1998 8.99853 13.0576C8.8566 12.9153 8.6641 12.8354 8.46338 12.8354ZM7.70655 15.8769H6.18477V14.3521H7.69842L7.70655 15.8769Z" fill="#A7B7C6"/>
<path d="M14.5424 7.5027H11.4988C11.2981 7.5027 11.1056 7.5826 10.9636 7.72481C10.8217 7.86702 10.742 8.05991 10.742 8.26103V11.3025C10.742 11.5036 10.8217 11.6965 10.9636 11.8387C11.1056 11.9809 11.2981 12.0608 11.4988 12.0608H14.5342C14.7349 12.0608 14.9274 11.9809 15.0694 11.8387C15.2113 11.6965 15.291 11.5036 15.291 11.3025V8.26103C15.291 8.06131 15.2124 7.86965 15.0723 7.72767C14.9321 7.58569 14.7417 7.50485 14.5424 7.5027ZM13.7774 10.5523H12.2638V9.02751H13.7855L13.7774 10.5523Z" fill="#A7B7C6"/>
<path d="M17.5778 11.3106C17.7785 11.3106 17.971 11.2307 18.1129 11.0885C18.2549 10.9463 18.3346 10.7534 18.3346 10.5523V9.02749H19.8564V10.5523C19.8564 10.7545 19.9365 10.9484 20.0792 11.0914C20.2219 11.2344 20.4155 11.3147 20.6173 11.3147C20.8191 11.3147 21.0126 11.2344 21.1553 11.0914C21.298 10.9484 21.3782 10.7545 21.3782 10.5523V8.26916C21.3782 8.06804 21.2984 7.87516 21.1565 7.73294C21.0146 7.59073 20.8221 7.51083 20.6213 7.51083H17.5778C17.3771 7.51083 17.1846 7.59073 17.0426 7.73294C16.9007 7.87516 16.821 8.06804 16.821 8.26916V10.5523C16.821 10.7534 16.9007 10.9463 17.0426 11.0885C17.1846 11.2307 17.3771 11.3106 17.5778 11.3106Z" fill="#A7B7C6"/>
<path d="M14.5424 12.8354H11.4988C11.2981 12.8354 11.1056 12.9153 10.9636 13.0576C10.8217 13.1998 10.742 13.3927 10.742 13.5938V16.6352C10.742 16.8364 10.8217 17.0293 10.9636 17.1715C11.1056 17.3137 11.2981 17.3936 11.4988 17.3936H14.5342C14.7349 17.3936 14.9274 17.3137 15.0694 17.1715C15.2113 17.0293 15.291 16.8364 15.291 16.6352V13.5938C15.291 13.3941 15.2124 13.2024 15.0723 13.0604C14.9321 12.9184 14.7417 12.8376 14.5424 12.8354ZM13.7855 15.8769H12.2638V14.3521H13.7855V15.8769Z" fill="#A7B7C6"/>
</svg>
