<svg width="31" height="37" viewBox="0 0 31 37" fill="none" xmlns="http://www.w3.org/2000/svg">
<path d="M25.8333 12.3333H29.2778C29.7345 12.3333 30.1726 12.519 30.4956 12.8494C30.8186 13.1798 31 13.628 31 14.0952V35.2381C31 35.7054 30.8186 36.1535 30.4956 36.484C30.1726 36.8144 29.7345 37 29.2778 37H1.72222C1.26546 37 0.827406 36.8144 0.504427 36.484C0.181448 36.1535 0 35.7054 0 35.2381V14.0952C0 13.628 0.181448 13.1798 0.504427 12.8494C0.827406 12.519 1.26546 12.3333 1.72222 12.3333H5.16667V10.5714C5.16667 7.76771 6.25535 5.07883 8.19323 3.0963C10.1311 1.11377 12.7594 0 15.5 0C18.2406 0 20.8689 1.11377 22.8068 3.0963C24.7446 5.07883 25.8333 7.76771 25.8333 10.5714V12.3333ZM3.44444 15.8571V33.4762H27.5556V15.8571H3.44444ZM13.7778 22.9048H17.2222V26.4286H13.7778V22.9048ZM6.88889 22.9048H10.3333V26.4286H6.88889V22.9048ZM20.6667 22.9048H24.1111V26.4286H20.6667V22.9048ZM22.3889 12.3333V10.5714C22.3889 8.70228 21.6631 6.90969 20.3712 5.58801C19.0793 4.26632 17.327 3.52381 15.5 3.52381C13.673 3.52381 11.9207 4.26632 10.6288 5.58801C9.3369 6.90969 8.61111 8.70228 8.61111 10.5714V12.3333H22.3889Z" fill="#AEAEAE"/>
</svg>
